<?xml version="1.0" encoding="utf-8"?>
<!-- Svg Vector Icons : http://www.onlinewebfonts.com/icon -->
<!DOCTYPE svg PUBLIC "-//W3C//DTD SVG 1.1//EN" "http://www.w3.org/Graphics/SVG/1.1/DTD/svg11.dtd">
<svg version="1.1" xmlns="http://www.w3.org/2000/svg" xmlns:xlink="http://www.w3.org/1999/xlink" x="0px" y="0px" viewBox="0 0 1000 1000" enable-background="new 0 0 1000 1000" xml:space="preserve">
<metadata> Svg Vector Icons : http://www.onlinewebfonts.com/icon </metadata>
<g><g transform="translate(0.000000,511.000000) scale(0.100000,-0.100000)"><path d="M4913.7,4844c-30.7-19.2-1106.3-1087.1-2389-2371.7C-88.6-146.9,103.1,66,103.1-229.3c0-126.6,7.7-172.6,49.9-262.7c151.5-324,542.6-462.1,862.8-301c57.5,26.8,686.4,642.3,2034.3,1988.3L5000,3145.2l1951.8-1949.9C8318.9-169.9,8926.7-766.2,8984.2-794.9c320.2-159.2,713.3-19.2,862.8,302.9c42.2,90.1,49.9,136.1,49.9,262.7c0,295.3,191.7,80.5-2431.2,2709.2C6177.3,3770.3,5101.6,4838.2,5072.9,4853.5C5005.8,4888.1,4982.7,4888.1,4913.7,4844z"/><path d="M3086.5,733.2l-1902-1902v-1691.1V-4551l46-53.7l46-53.7H5000h3723.5l46,53.7l46,53.7v1691.1v1691.1L6911.6,735.1c-1045,1045-1905.8,1902-1911.6,1902S4133.4,1780.1,3086.5,733.2z M3316.6-141.1l63.3-55.6l3.8-563.7c1.9-308.7,3.8-598.2,3.8-642.3l1.9-82.4H5000h1610.6v247.3c0,136.1,5.8,272.3,11.5,306.8c30.7,153.4,207.1,209,316.4,99.7L6994-887v-1758.2v-1756.3l-186,5.7l-187.9,5.8l-5.7,255l-5.8,253.1H5001.9c-1405.4,0-1610.6-3.9-1620.1-28.8c-5.8-15.4-5.8-82.5,1.9-151.5c5.7-67.1,3.8-170.7-1.9-230.1l-13.4-107.4h-182.1H3006v2101.4v2101.4l55.6,55.6C3138.3-64.4,3232.2-64.4,3316.6-141.1z M4100.8-608.9c117-61.3,209-214.7,209-348.9c-1.9-387.3-462.1-554.1-715.2-258.8c-78.6,92-99.7,166.8-86.3,308.7C3535.2-637.7,3851.5-478.6,4100.8-608.9z M6315.3-754.7c120.8-55.6,170.6-138,170.6-291.4c0-107.4-7.7-136.1-51.8-193.7c-99.7-130.4-93.9-130.4-981.7-130.4c-882,0-876.2,0-983.6,120.8c-107.4,122.7-107.4,287.6,0,410.3c105.5,120.8,95.9,118.9,972.1,118.9C6177.3-718.2,6242.4-722.1,6315.3-754.7z"/><path d="M3387.5-1926.1c0-42.2-1.9-356.6-1.9-699.8c0-343.2,1.9-682.6,1.9-757.3l1.9-134.2H5000h1610.6v834v834H5000H3389.4L3387.5-1926.1z M4075.8-2633.6c318.3-163,306.8-604-19.2-738.2c-168.7-70.9-381.5-5.8-488.9,147.6c-47.9,69.1-53.7,94-53.7,226.3c0,134.2,5.7,155.3,57.5,230.1C3682.8-2608.7,3911-2549.3,4075.8-2633.6z M6317.2-2790.8c116.9-55.6,164.9-134.2,174.5-276.1c5.8-95.9,0-124.6-38.3-180.2c-23-36.4-69-84.4-97.8-105.4c-53.7-38.3-76.7-40.3-887.7-46c-814.9-5.7-836-3.8-905,34.5c-237.8,134.2-224.3,464,23,577.1c72.9,32.6,140,36.4,862.8,36.4C6206-2750.6,6236.7-2752.5,6317.2-2790.8z"/></g></g>
</svg>